<?xml version="1.0" encoding="UTF-8"?>
<svg xmlns="http://www.w3.org/2000/svg" version="1.1" viewBox="0 0 800 800">
  <defs>
    <style>
      .cls-1 {
        fill: #1769ff;
      }
    </style>
  </defs>
  <!-- Generator: Adobe Illustrator 28.7.3, SVG Export Plug-In . SVG Version: 1.2.0 Build 164)  -->
  <g>
    <g id="Layer_1">
      <g>
        <path class="cls-1" d="M320.2,431.7c-10.5-8-24.4-11.9-41.6-11.9h-86.8v99.5h85.3s0,0,0,0c7.5,0,15-.7,22.3-2.3,7.1-1.5,13.4-4.1,18.8-7.6,5.4-3.6,9.7-8.4,13-14.5,3.2-6.1,4.8-13.9,4.8-23.4,0-18.6-5.2-31.9-15.7-39.8Z"/>
        <path class="cls-1" d="M272.4,365.5c14.2,0,25.9-3.4,35-10.1,9.2-6.8,13.7-17.8,13.7-33,0-8.4-1.5-15.4-4.6-20.8s-7.1-9.7-12.2-12.7c-5.1-3-10.9-5.2-17.5-6.3-6.8-1.2-13.7-1.8-20.6-1.8h-74.6v84.8h80.7q0,0,0,0Z"/>
        <path class="cls-1" d="M597.4,373.6c-8.6-9.5-21.8-14.2-39.4-14.2s-21.1,2-28.7,5.8c-7.6,3.9-13.7,8.7-18.3,14.5-4.6,5.8-7.8,11.8-9.6,18.3-1.9,6.4-3,12.2-3.3,17.2h117.3c-3.4-18.2-9.4-32.1-18-41.6h0Z"/>
        <path class="cls-1" d="M400,0C179.1,0,0,179.1,0,400s179.1,400,400,400,400-179.1,400-400S620.9,0,400,0ZM485.9,237.2h146.5v40.6h-146.5v-40.6ZM405,523.7c-7.1,13.4-16.7,24.3-28.7,32.7-12,8.5-25.7,14.7-41.1,18.8-15.5,4.1-31.5,6.1-47.5,6.1H112V218.8h170.6c17.2,0,33,1.5,47.2,4.6,14.2,3,26.4,8,36.5,15s18,16.2,23.6,27.7,8.4,25.7,8.4,42.7-4.2,33.5-12.4,45.7c-8.3,12.2-20.6,22.2-36.8,30,22.3,6.4,39,17.7,50,33.8,11,16.1,16.5,35.5,16.5,58.1s-3.6,34.1-10.7,47.5ZM515.9,511.7h0c10.8,10.5,26.4,15.7,46.7,15.7s27.1-3.6,37.6-10.9,16.9-15,19.3-23.1h63.5c-10.1,31.5-25.7,54-46.7,67.5-21,13.5-46.4,20.3-76.2,20.3s-39.3-3.3-55.8-9.9c-16.6-6.6-30.6-16-42.1-28.2-11.5-12.2-20.4-26.7-26.7-43.6-6.2-16.9-9.4-35.6-9.4-55.8s3.2-37.9,9.6-54.8,15.6-31.6,27.4-43.9c11.8-12.4,26-22.1,42.4-29.2,16.4-7.1,34.6-10.7,54.6-10.7s41.8,4.3,58.4,13c16.6,8.6,30.2,20.2,40.9,34.8,10.7,14.6,18.4,31.1,23.1,49.8s6.4,38.1,5.1,58.4h-189.4c1,23.3,6.9,40.2,17.7,50.7Z"/>
      </g>
    </g>
  </g>
</svg>