<?xml version="1.0" encoding="UTF-8"?>
<svg width="24" height="24" xmlns="http://www.w3.org/2000/svg" version="1.1" viewBox="0 0 24 24">
  <defs>
    <style>
      .cls-1 {
        fill: #1185fe;
      }
    </style>
  </defs>
  <!-- Generator: Adobe Illustrator 28.7.3, SVG Export Plug-In . SVG Version: 1.2.0 Build 164)  -->
  <g>
    <g id="Layer_1">
      <path class="cls-1" d="M5.2,2.9c2.8,2.1,5.7,6.3,6.8,8.5,1.1-2.2,4-6.4,6.8-8.5,2-1.5,5.2-2.6,5.2,1s-.4,6.2-.7,7c-.9,3.1-4,3.8-6.8,3.4,4.9.8,6.1,3.6,3.4,6.3-5.1,5.2-7.3-1.3-7.8-3-.1-.3-.2-.4-.2-.3,0-.1,0,0-.2.3-.6,1.7-2.8,8.2-7.8,3-2.7-2.7-1.4-5.5,3.4-6.3-2.8.5-5.9-.3-6.8-3.4-.2-.9-.7-6.3-.7-7C0,.2,3.2,1.4,5.2,2.9h0Z"/>
    </g>
  </g>
</svg>