<?xml version="1.0" encoding="UTF-8"?>
<svg width="24" height="24" xmlns="http://www.w3.org/2000/svg" version="1.1" viewBox="0 0 24 24">
  <defs>
    <style>
      .cls-1 {
        fill: #a6ce39;
      }
    </style>
  </defs>
  <!-- Generator: Adobe Illustrator 28.7.3, SVG Export Plug-In . SVG Version: 1.2.0 Build 164)  -->
  <g>
    <g id="Layer_1">
      <g id="Layer_1-2" data-name="Layer_1">
        <g id="Layer_1-2">
          <g>
            <path class="cls-1" d="M18,12.4c0,1.2-.8,3.7-4,3.7h-2.3v-7.4h2.2c2.8,0,4.1,1.7,4.1,3.7h0Z"/>
            <path class="cls-1" d="M12,0C5.4,0,0,5.4,0,12s5.4,12,12,12,12-5.4,12-12S18.6,0,12,0ZM8.1,17.5h-1.4V7.4h1.4v10h0ZM7.4,6.3c-.5,0-.9-.4-.9-.9s.4-.9.9-.9.9.4.9.9-.4.9-.9.9ZM14,17.4c-.6,0-1.2,0-1.8,0-.5,0-1.1,0-1.6,0h-.4V7.4h3.9c3.7,0,5.3,2.7,5.3,5,0,.7-.2,1.5-.6,2.2s-.9,1.4-1.6,1.8c-.6.5-1.4.8-2.1.9-.4,0-.7.1-1.1.1Z"/>
          </g>
        </g>
      </g>
    </g>
  </g>
</svg>